<svg xmlns="http://www.w3.org/2000/svg" viewBox="0 0 448 512"><!--!Font Awesome Free 6.5.1 by @fontawesome - https://fontawesome.com License - https://fontawesome.com/license/free Copyright 2024 Fonticons, Inc.--><path d="M377.7 32H70.3C31.4 32 0 63.4 0 102.3v307.5C0 448.6 31.4 480 70.3 480h307.5c38.5 0 69.8-31.1 70.3-69.6-46-25.6-110.6-60.3-171.6-88.4-32.1 44-84.1 81-148.6 81-70.6 0-93.7-45.3-97-76.4-4-39 14.9-81.5 99.5-81.5 35.4 0 79.4 10.3 127.1 25 16.5-30.1 26.5-60.3 26.5-60.3h-178.2v-16.7h92.1v-31.2H88.3v-19h109.4V92.3h50.9v50.4h109.4v19H248.6v31.2h88.8s-15.2 46.6-38.4 90.9c48.9 16.7 100 36 148.6 52.7V102.3C447.8 63.6 416.4 32 377.7 32zM47.3 323c1 20.2 10.3 53.7 69.9 53.7 52.1 0 92.6-39.7 117.9-72.9-44.6-18.7-84.5-31.4-109.4-31.4-67.5 0-79.4 33.1-78.4 50.6z"/></svg>